<svg 
          width="13" 
          height="8" fill="none" 
          xmlns="http://www.w3.org/2000/svg">
          <path d="M 12.430503745168183 4.6344824799346185 C 12.210275586199987 4.410640131869604 11.932951829053792 4.238817766232479 11.632789011201613 4.134778365125031 C 11.330994867430382 4.0307389640175835 11.00473052372384 3.997635226086533 10.688254508911054 4.035467737630144 C 10.464763713662233 4.062265766327009 10.249429703583438 4.125320141401912 10.047146067494902 4.219901416502618 C 9.965580082691867 4.25773392804623 9.867700504212563 4.224630385547934 9.828548829951357 4.147389009379029 C 9.817129592273401 4.123743690603852 9.81223563299075 4.10009827599146 9.81223563299075 4.074876602255439 C 9.81223563299075 4.026009611623403 9.836705626789493 3.978718876356672 9.880751259361006 3.9471917846564364 C 10.058565100008632 3.82423612401886 10.197227880915394 3.657142832660073 10.282056501999055 3.4632512156969666 C 10.406036797343921 3.1826601115915016 10.407667524300109 2.8721182463175507 10.288581183376182 2.5883744210154314 C 10.169494842452256 2.306206956311639 9.944373312468507 2.083940833545353 9.653998419015682 1.9657142396694698 C 9.37341141884726 1.8506403519569525 9.063460489906003 1.8443348419138434 8.777979543095379 1.9483742430212918 C 8.764928985332425 1.954679661455297 8.751878029881466 1.959408628856347 8.738827472118512 1.9625613380733495 C 8.658892805455789 1.9877830118093702 8.569170821135314 1.9483743407376692 8.5365444272141 1.8711329645687633 C 8.518599910168495 1.826995036940098 8.521861953320313 1.7797043505315562 8.543069108591228 1.7402954859062618 C 8.544700428311597 1.7198028770527731 8.546331947119054 1.699310241891029 8.546331947119054 1.6788176330375404 C 8.559382504882008 1.379310261885303 8.502286512905373 1.076650199602989 8.378306217560507 0.8023645078242556 C 8.280427035796864 0.5816748659226071 8.138501929759016 0.3799014610011533 7.96558203575359 0.20650245664985806 C 7.908485846391465 0.27270934621369486 7.843233058549037 0.33261080090086687 7.769823672226305 0.381477791532903 C 7.637686770622397 0.4713299998719164 7.484342927662882 0.531231447042444 7.324473594337438 0.5548767658176206 C 7.164604261011994 0.5785220845927972 6.99984066989481 0.5643348918243624 6.846496624688094 0.5154679011923262 C 6.707834450522935 0.47132997356366096 6.58385434964653 0.4019704492445803 6.474555933121958 0.3073891741438738 C 6.468030654240481 0.3010837557098686 6.461505276180088 0.29635465606285627 6.456611316897438 0.2900492376288511 C 6.357100816993483 0.20334973545320345 6.244539655285946 0.1355664928076838 6.12055935994108 0.08669950217564763 C 5.977003223576242 0.028374381778547515 5.823659473961589 0 5.668684102835822 0 C 5.5137087317100555 0 5.36036448425614 0.02995073861855261 5.216808347891302 0.08669950217564763 C 5.073252211526464 0.14502462257274776 4.942746635841608 0.22699503919509126 4.833448219317036 0.3341871539825497 C 4.722518476873413 0.4413792687700082 4.636058833241501 0.5659112449060453 4.577331325739063 0.7046304513937393 C 4.516972496206943 0.8433496578814332 4.487608742455724 0.9915270580256688 4.487608742455724 1.1412807436017873 C 4.487608742455724 1.291034429177906 4.518603818236626 1.4392117090558307 4.577331325739063 1.5779309155435248 C 4.623008276450889 1.683546669732656 4.683366810390947 1.7828570115950555 4.760038832994304 1.869556513770703 C 4.817135022356429 1.937339763932867 4.807347300204275 2.0366503162613103 4.73883187608122 2.0918227267367224 C 4.6833670048594085 2.1359606543653875 4.6066947800088505 2.1391131726126433 4.547967272506413 2.1044333709907197 C 4.541441993624936 2.101280661773717 4.533285594474806 2.096551790679674 4.526760315593329 2.0918227267367224 C 4.415830573149705 2.009852291322768 4.29185053450321 1.9483742430212918 4.159713632899302 1.9089653783959974 C 4.0031069358544835 1.8616747408456442 3.839974872903551 1.8474875010981817 3.6768429032974805 1.8648274019091435 C 3.51371093369141 1.8821673027201054 3.3587356092380736 1.932610697171174 3.2168107987922876 2.011428426421763 C 3.0748859883465016 2.0918225087540345 2.9541682281586614 2.197438285493099 2.8562890463950192 2.325123012892368 C 2.76004118277169 2.4528077402916373 2.6915257080868358 2.5962561037407577 2.6556366739956263 2.752315201643608 C 2.619747639904417 2.9067979539814197 2.6181164209430197 3.0644333673827306 2.6491114947792362 3.220492465285581 C 2.680106568615453 3.376551563188431 2.7453594595261657 3.5215763323357443 2.8383446790901306 3.6524137658983795 C 2.932961224573147 3.7832511994610147 3.050416084003252 3.8904432090154515 3.1907095840874637 3.9739900050277335 C 3.233123894629294 3.999211678763754 3.259224961538087 4.040196992307948 3.2673815600183906 4.085911276776618 C 3.2739068388998676 4.120591078398541 3.2690128801033884 4.1568473308185245 3.251068363057784 4.189950775600443 C 3.2086540525159535 4.267192151769349 3.109143552611998 4.295566146440709 3.0308402040895888 4.254580928733732 C 2.756778507597372 4.112709016082673 2.4468278586906997 4.030738673687193 2.135245790520114 4.0197041917800265 C 1.8236637223495287 4.00866970987286 1.50881900234084 4.066995024763134 1.2233380555302167 4.188374324802383 C 0.9378571087195933 4.3097536248416315 0.6817398573196503 4.49733952881223 0.48108753159268813 4.727487304237265 C 0.280435205865726 4.9576350796623 0.13524777858616024 5.235073673037153 0.060207074123115496 5.526699271264332 C -0.014833630339929245 5.81832486949151 -0.01972758476086827 6.128866614499151 0.04552520308155993 6.423644933922984 C 0.11077799092398813 6.718423253346817 0.24780881194451188 6.999014357452282 0.44030453919117046 7.235467545204048 C 0.632800266437829 7.471920732955814 0.8840235711955716 7.6658124401186525 1.1646105713639945 7.796649873681288 C 1.4451975715324172 7.927487307243923 1.7584109345071004 7.995270936291944 2.069993002677686 7.992118227074942 C 2.0879375197232903 7.992118227074942 2.1058819862070948 7.995270936057048 2.122195183167702 8 L 10.893801388021819 8 C 10.910114584982425 7.995270936057048 10.926427383282686 7.992118227074942 10.94437190032829 7.992118227074942 C 11.264110566979179 7.992118227074942 11.58384942031979 7.918029564586046 11.869330367130415 7.7793103580983525 C 12.154811313941039 7.640591151610659 12.406034151974472 7.435664484294152 12.59689855330208 7.1866004568556345 C 12.787762954629686 6.939112790015444 12.916637612779262 6.6459112070221575 12.97047116197139 6.341674784141516 C 13.02430471116352 6.037438361260875 13.004728679564455 5.7205908731941495 12.910112134081439 5.424236223238567 C 12.817126914517475 5.132610625011388 12.650731904136379 4.858324827999633 12.430503745168183 4.6344824799346185 Z" fill="#C4C4C4"/>
        </svg>