<svg width="250" height="250" viewBox="0 0 250 250" fill="none" xmlns="http://www.w3.org/2000/svg">
<path d="M242.676 117.676C188.539 117.676 142.337 152.272 125 200.515C107.663 152.272 61.4609 117.676 7.32422 117.676C3.2793 117.676 0 120.955 0 125C0 193.925 56.0747 250 125 250C193.925 250 250 193.925 250 125C250 120.955 246.721 117.676 242.676 117.676Z" fill="#73DF00"/>
<path d="M125 250C193.925 250 250 193.925 250 125C250 120.955 246.721 117.676 242.676 117.676C188.539 117.676 142.337 152.272 125 200.515V250Z" fill="#00BE00"/>
<path d="M92.0898 92.0804C89.2295 94.9407 89.2295 99.578 92.0898 102.438C94.9502 105.299 99.5874 105.299 102.448 102.438C114.901 89.9847 135.093 89.9847 147.547 102.438C150.407 105.299 155.044 105.299 157.905 102.438C160.765 99.578 160.765 94.9407 157.905 92.0804C139.731 73.9061 110.264 73.9061 92.0898 92.0804V92.0804Z" fill="#00DCE5"/>
<path d="M64.3552 64.3445C61.4949 67.2049 61.4949 71.8421 64.3552 74.7024C67.2156 77.5628 71.8528 77.5628 74.7131 74.7024C102.485 46.9304 147.512 46.9304 175.284 74.7024C178.145 77.5628 182.782 77.5628 185.642 74.7024C188.503 71.8421 188.503 67.2049 185.642 64.3445C152.15 30.8518 97.8479 30.8518 64.3552 64.3445V64.3445Z" fill="#00DCE5"/>
<path d="M213.378 36.6113C164.567 -12.1997 85.429 -12.1997 36.6179 36.6113C33.7576 39.4717 33.7576 44.1089 36.6179 46.9692C39.4783 49.8296 44.1155 49.8296 46.9758 46.9692C90.0662 3.8789 159.929 3.8789 203.02 46.9692C205.88 49.8296 210.517 49.8296 213.378 46.9692C216.239 44.1089 216.239 39.4717 213.378 36.6113V36.6113Z" fill="#00DCE5"/>
<path d="M157.908 102.439C160.768 99.5784 160.768 94.9412 157.908 92.0809C148.82 82.994 136.91 78.45 125 78.45V93.0985C133.161 93.0985 141.323 96.2117 147.55 102.439C150.41 105.299 155.047 105.299 157.908 102.439V102.439Z" fill="#00A2C5"/>
<path d="M175.286 74.7026C178.146 77.563 182.783 77.563 185.644 74.7026C188.504 71.8423 188.504 67.205 185.644 64.3447C168.897 47.5981 146.949 39.225 125 39.225V53.8735C143.2 53.8735 161.4 60.8164 175.286 74.7026V74.7026Z" fill="#00A2C5"/>
<path d="M213.38 46.9663C216.24 44.106 216.24 39.4687 213.38 36.6084C188.975 12.2026 156.987 0 125 0V14.6484C153.238 14.6484 181.477 25.4209 203.022 46.9663C205.882 49.8267 210.52 49.8267 213.38 46.9663V46.9663Z" fill="#00A2C5"/>
</svg>
