<svg width="250" height="250" viewBox="0 0 250 250" fill="none" xmlns="http://www.w3.org/2000/svg">
<path d="M250 142.534V242.701C250 244.088 248.874 245.215 247.486 245.215H226.599C225.212 245.215 224.085 244.089 224.085 242.701V152.89H165.798V126.976H234.441C243.032 126.976 250 133.943 250 142.534V142.534Z" fill="#A49CA7"/>
<path d="M165.798 126.976H214.394V152.89H165.798V126.976Z" fill="#766D78"/>
<path d="M35.6006 170.85H182.954V200.852H35.6006V170.85Z" fill="#766D78"/>
<path d="M35.6006 170.851H53.1948V200.852H35.6006V170.851Z" fill="#655E67"/>
<path d="M62.9326 0.085144H2.6748C1.28662 0.085144 0.161133 1.21063 0.161133 2.59882V24.2023C0.161133 25.5905 1.28662 26.716 2.6748 26.716H52.3223V86.2976H78.9526V16.1057C78.9526 7.25751 71.7803 0.085144 62.9326 0.085144V0.085144Z" fill="#A49CA7"/>
<path d="M83.4165 77.1265H47.8589C45.5693 77.1265 43.7134 78.9824 43.7134 81.272V96.0889H87.562V81.272C87.562 78.9824 85.7061 77.1265 83.4165 77.1265Z" fill="#766D78"/>
<path d="M82.5352 41.8438H48.7402C45.9639 41.8438 43.7134 44.0943 43.7134 46.8707V54.7256C43.7134 57.502 45.9639 59.7525 48.7402 59.7525H82.5347C85.311 59.7525 87.5615 57.502 87.5615 54.7256V46.8711C87.562 44.0948 85.311 41.8438 82.5352 41.8438V41.8438Z" fill="#766D78"/>
<path d="M20.269 26.7134H2.67481C1.2876 26.7134 0.161133 25.5874 0.161133 24.1997V2.59378C0.161133 1.20657 1.28711 0.0801086 2.67481 0.0801086H20.269C18.8818 0.0801086 17.7554 1.20609 17.7554 2.59378V24.1997C17.7559 25.5869 18.8818 26.7134 20.269 26.7134V26.7134Z" fill="#8E8391"/>
<path d="M65.451 77.1284C63.1638 77.1284 61.3089 78.9834 61.3089 81.2705V96.0899H43.7146V81.2705C43.7146 78.9834 45.5696 77.1284 47.8567 77.1284H65.451Z" fill="#655E67"/>
<path d="M66.3357 59.7554H48.7414C45.9617 59.7554 43.7146 57.5035 43.7146 54.7285V46.8711C43.7146 44.0962 45.9617 41.8443 48.7414 41.8443H66.3357C63.5559 41.8443 61.3088 44.0962 61.3088 46.8711V54.7281C61.3088 57.5035 63.5559 59.7554 66.3357 59.7554V59.7554Z" fill="#655E67"/>
<path d="M153.856 28.2007C151.868 27.5855 149.755 28.6978 149.139 30.6866L131.826 86.5879C131.21 88.5767 132.323 90.689 134.312 91.3047C134.684 91.42 135.06 91.4747 135.429 91.4747C137.038 91.4747 138.529 90.4366 139.029 88.8189L156.342 32.9175C156.958 30.9287 155.845 28.8169 153.856 28.2007V28.2007Z" fill="#A49CA7"/>
<path d="M152.741 42.7778C158.802 42.7778 163.716 37.8639 163.716 31.8022C163.716 25.7406 158.802 20.8266 152.741 20.8266C146.679 20.8266 141.765 25.7406 141.765 31.8022C141.765 37.8639 146.679 42.7778 152.741 42.7778Z" fill="#544F56"/>
<path d="M153.566 74.211H121.668C118.1 74.211 115.021 76.7115 114.288 80.2032V99.0049H161.107V81.7515C161.107 77.5869 157.731 74.211 153.566 74.211V74.211Z" fill="#766D78"/>
<path d="M139.261 74.2129C135.691 74.2129 132.615 76.7115 131.881 80.2051V99.0059H114.287V80.2051C115.021 76.7115 118.098 74.2129 121.667 74.2129H139.261Z" fill="#655E67"/>
<path d="M158.459 41.1709C156.795 42.1914 154.835 42.7793 152.739 42.7793C146.681 42.7793 141.765 37.8628 141.765 31.8003C141.765 25.7427 146.682 20.8266 152.739 20.8266C154.835 20.8266 156.795 21.415 158.459 22.435C155.308 24.3603 153.201 27.834 153.201 31.8003C153.201 35.7666 155.308 39.2451 158.459 41.1709V41.1709Z" fill="#444145"/>
<path d="M32.8086 170.85L4.12207 164.329C2.97754 164.069 2.16553 163.052 2.16553 161.878V111.948C2.16553 110.774 2.97754 109.757 4.12207 109.497L32.8086 102.976V170.85Z" fill="#A49CA7"/>
<path d="M43.7134 94.4976H172.05V179.328H43.7134V94.4976Z" fill="#FED22B"/>
<path d="M43.7127 179.328H28.5989C24.9006 179.328 21.9031 176.33 21.9031 172.632V101.193C21.9031 97.4952 24.9011 94.4976 28.5989 94.4976H43.7127V179.328Z" fill="#F0A70A"/>
<path d="M172.05 179.328H187.163C190.862 179.328 193.859 176.33 193.859 172.632V101.193C193.859 97.4952 190.861 94.4976 187.163 94.4976H172.05V179.328Z" fill="#F0A70A"/>
<path d="M99.8635 159.566H64.7878C63.3997 159.566 62.2742 158.44 62.2742 157.052V116.773C62.2742 115.385 63.3997 114.26 64.7878 114.26H99.8635C101.252 114.26 102.377 115.385 102.377 116.773V157.052C102.377 158.44 101.252 159.566 99.8635 159.566V159.566Z" fill="#766D78"/>
<path d="M121.042 124.98H153.488C155.57 124.98 157.258 123.292 157.258 121.21C157.258 119.128 155.57 117.44 153.488 117.44H121.042C118.96 117.44 117.272 119.128 117.272 121.21C117.272 123.292 118.96 124.98 121.042 124.98V124.98Z" fill="#F0A70A"/>
<path d="M153.493 133.143H121.047C118.965 133.143 117.277 134.831 117.277 136.913C117.277 138.995 118.965 140.683 121.047 140.683H153.493C155.575 140.683 157.263 138.995 157.263 136.913C157.263 134.831 155.575 133.143 153.493 133.143Z" fill="#F0A70A"/>
<path d="M153.493 148.846H121.047C118.965 148.846 117.277 150.534 117.277 152.616C117.277 154.698 118.965 156.386 121.047 156.386H153.493C155.575 156.386 157.263 154.698 157.263 152.616C157.263 150.534 155.575 148.846 153.493 148.846Z" fill="#F0A70A"/>
<path d="M194.661 249.919H2.51367C1.12549 249.919 0 248.794 0 247.406V203.365C0 201.977 1.12549 200.851 2.51367 200.851H194.662C196.05 200.851 197.175 201.977 197.175 203.365V247.406C197.175 248.794 196.049 249.919 194.661 249.919V249.919Z" fill="#FED22B"/>
<path d="M82.3808 159.565H64.7866C63.3994 159.565 62.2729 158.439 62.2729 157.052V116.776C62.2729 115.383 63.3989 114.262 64.7866 114.262H82.3808C80.9936 114.262 79.8672 115.383 79.8672 116.776V157.052C79.8677 158.439 80.9936 159.565 82.3808 159.565V159.565Z" fill="#655E67"/>
<path d="M83.5125 149.565C83.0559 149.565 82.5916 149.482 82.1409 149.305C80.2014 148.547 79.2439 146.361 80.0017 144.421L81.4626 140.683H77.6658C76.4202 140.683 75.2546 140.068 74.552 139.039C73.8494 138.01 73.7004 136.701 74.1541 135.541L77.6252 126.66C78.3831 124.72 80.5701 123.762 82.509 124.521C84.4485 125.278 85.406 127.465 84.6482 129.404L83.1873 133.143H86.9841C88.2297 133.143 89.3953 133.758 90.0979 134.787C90.8005 135.815 90.9495 137.125 90.4959 138.285L87.0247 147.166C86.4431 148.655 85.0198 149.565 83.5125 149.565Z" fill="#F0A70A"/>
<path d="M20.1079 249.919H2.51367C1.12646 249.919 0 248.793 0 247.406V203.365C0 201.978 1.12598 200.851 2.51367 200.851H20.1079C18.7207 200.851 17.5942 201.977 17.5942 203.365V247.406C17.5942 248.793 18.7202 249.919 20.1079 249.919V249.919Z" fill="#F0A70A"/>
<path d="M20.1079 249.919H2.51367C1.12646 249.919 0 248.794 0 247.406V216.842L15.6235 226.368C16.272 226.76 16.9253 227.127 17.5942 227.463V247.405C17.5942 248.794 18.7202 249.919 20.1079 249.919V249.919Z" fill="#72D1FB"/>
<path d="M0 216.843L15.625 226.367C25.2207 232.215 37.2793 232.215 46.875 226.367C56.4707 220.518 68.5293 220.518 78.125 226.367C87.6055 232.145 99.6646 232.285 109.375 226.367C118.855 220.588 130.915 220.448 140.625 226.367C150.105 232.145 162.165 232.285 171.875 226.367C181.355 220.588 193.415 220.448 203.125 226.367C212.605 232.145 224.665 232.285 234.375 226.367L250 216.843V247.406C250 248.794 248.875 249.92 247.486 249.92H2.51367C1.12549 249.92 0 248.794 0 247.406L0 216.843Z" fill="#93DCFC"/>
<path d="M234.376 226.368C229.581 229.289 224.162 230.751 218.753 230.751C203.991 230.751 202.244 221.979 187.5 221.979C172.773 221.979 170.994 230.751 156.248 230.751C141.477 230.751 139.761 221.979 125 221.979C110.251 221.979 108.513 230.751 93.7529 230.751C78.9912 230.751 77.2437 221.979 62.5005 221.979C57.0864 221.979 51.6772 223.442 46.877 226.368C37.2808 232.214 25.2207 232.214 15.6245 226.368L0 216.842V231.42L15.6235 240.946C25.2197 246.792 37.2798 246.792 46.876 240.946C51.6768 238.021 57.0859 236.558 62.4995 236.558C67.9131 236.558 73.3223 238.021 78.123 240.946C82.9238 243.867 88.333 245.33 93.752 245.33C99.1611 245.33 104.58 243.867 109.375 240.946C118.967 235.095 131.031 235.095 140.623 240.946C145.419 243.867 150.838 245.33 156.247 245.33C161.666 245.33 167.075 243.867 171.875 240.946C181.478 235.095 193.521 235.095 203.123 240.946C207.924 243.867 213.333 245.33 218.752 245.33C224.161 245.33 229.58 243.867 234.375 240.946L250 231.42V216.842L234.376 226.368Z" fill="#72D1FB"/>
</svg>
