<svg height="512" viewBox="0 0 64 64" width="512" xmlns="http://www.w3.org/2000/svg"><g id="coronavirus-covid19-flu-breath-tempurature"><path d="m39 17h-14a4 4 0 0 0 -4 4v9a11 11 0 0 0 22 0v-9a4 4 0 0 0 -4-4z" fill="#ffa791"/><path d="m38 7h-8a4 4 0 0 0 -4 4 2 2 0 0 0 -2-2h-2a4 4 0 0 0 -4 4v13h3v-5a4 4 0 0 1 4-4h14a4 4 0 0 1 4 4v5h3v-11a8 8 0 0 0 -8-8z" fill="#58595b"/><path d="m38 7h-8a4 4 0 0 0 -4 4v6h13a4 4 0 0 1 4 4v5h3v-11a8 8 0 0 0 -8-8z" fill="#4f5052"/><path d="m37 39.778a10.84 10.84 0 0 1 -10 0v3.222a2 2 0 0 1 -1.92 1.992v.008a6.991 6.991 0 0 0 13.84 0v-.008a2 2 0 0 1 -1.92-1.992z" fill="#ffa791"/><path d="m56.081 55.806a12 12 0 0 0 -11.941-10.806h-5.14c-.027 0-.053-.007-.08-.008v.008a6.991 6.991 0 0 1 -13.84 0v-.008c-.027 0-.053.008-.08.008h-5.14a12 12 0 0 0 -11.941 10.806l-.519 5.194h49.2z" fill="#ed1c24"/><path d="m38.92 44.992v.008h.08c-.027 0-.053-.007-.08-.008z" fill="#c20023"/><path d="m56.081 55.806a12 12 0 0 0 -11.941-10.806h-2a12 12 0 0 1 11.941 10.806l.519 5.194h2z" fill="#c20023"/><path d="m37 41.778v-2a10.84 10.84 0 0 1 -10 0v2a10.84 10.84 0 0 0 10 0z" fill="#ff9478"/><path d="m45 25h-2v5a10.98 10.98 0 0 1 -.188 2h2.188a2 2 0 0 0 2-2v-3a2 2 0 0 0 -2-2z" fill="#ff9478"/><path d="m19 25h2v5a10.98 10.98 0 0 0 .188 2h-2.188a2 2 0 0 1 -2-2v-3a2 2 0 0 1 2-2z" fill="#ff9478"/><path d="m33.536 23.95a7.042 7.042 0 0 0 1.464 1.116v.934a1 1 0 0 0 2 0v-.162a7.045 7.045 0 0 0 1.485.162h.515a1 1 0 0 0 0-2h-.515a4.967 4.967 0 0 1 -3.535-1.464l-.243-.243a1 1 0 0 0 -1.414 1.414z" fill="#58595b"/><g fill="#57a4ff"><path d="m3.529 58a1.009 1.009 0 0 0 -1.132.849l-.281 1.98a1 1 0 0 0 .849 1.131.988.988 0 0 0 .142.01 1 1 0 0 0 .989-.859l.282-1.98a1 1 0 0 0 -.849-1.131z"/><path d="m6.425 49.727a14.151 14.151 0 0 1 .942-1.612 1 1 0 0 0 -1.657-1.121 16.158 16.158 0 0 0 -1.075 1.841 1 1 0 1 0 1.79.892z"/><path d="m9.2 45.583a1 1 0 0 0 .649-.24 13.954 13.954 0 0 1 1.494-1.113 1 1 0 1 0 -1.084-1.68 15.9 15.9 0 0 0 -1.71 1.274 1 1 0 0 0 .651 1.759z"/><path d="m13.455 42a1 1 0 0 0 .953.7.984.984 0 0 0 .3-.047 14.03 14.03 0 0 1 1.812-.44 1 1 0 0 0 -.341-1.971 15.922 15.922 0 0 0 -2.072.5 1 1 0 0 0 -.652 1.258z"/><path d="m4.44 52.075a1 1 0 0 0 -1.175.786c-.1.478-.169.969-.216 1.422l-.087.609a1 1 0 0 0 .849 1.131.969.969 0 0 0 .142.01 1 1 0 0 0 .988-.859l.092-.645c.046-.433.111-.86.194-1.278a1 1 0 0 0 -.787-1.176z"/><path d="m19.336 41a1 1 0 0 0 1 1h2a1 1 0 0 0 0-2h-2a1 1 0 0 0 -1 1z"/><path d="m46.867 42.115a14.059 14.059 0 0 1 1.83.36 1 1 0 0 0 .515-1.933 16.114 16.114 0 0 0 -2.09-.41 1 1 0 1 0 -.255 1.983z"/><path d="m52.13 43.906a13.671 13.671 0 0 1 1.543 1.047 1 1 0 0 0 1.232-1.577 16.094 16.094 0 0 0 -1.765-1.2 1 1 0 0 0 -1.01 1.727z"/><path d="m60.064 55.369a1 1 0 0 0 .886-1.1 16.344 16.344 0 0 0 -.367-2.1 1 1 0 1 0 -1.943.474 14.426 14.426 0 0 1 .322 1.839 1 1 0 0 0 1.1.886z"/><path d="m59.035 48.209a15.974 15.974 0 0 0 -1.156-1.791 1 1 0 0 0 -1.6 1.2 13.9 13.9 0 0 1 1.01 1.565 1 1 0 0 0 1.75-.969z"/><path d="m61.508 58.193a1 1 0 1 0 -1.98.283l.282 1.98a1 1 0 0 0 .989.858 1.128 1.128 0 0 0 .142-.009 1 1 0 0 0 .85-1.132z"/><path d="m43 40h-2a1 1 0 0 0 0 2h2a1 1 0 0 0 0-2z"/><path d="m39.885 4.161a10.861 10.861 0 0 1 1.77.461 1 1 0 0 0 .665-1.887 12.9 12.9 0 0 0 -2.095-.545 1 1 0 0 0 -.34 1.971z"/><path d="m48.707 12.463a1 1 0 0 0 .972.771.957.957 0 0 0 .23-.027 1 1 0 0 0 .744-1.2 12.8 12.8 0 0 0 -.673-2.059 1 1 0 0 0 -1.841.779 11.03 11.03 0 0 1 .568 1.736z"/><path d="m46.18 7.646a1 1 0 0 0 1.488-1.336 12.859 12.859 0 0 0 -1.575-1.484 1 1 0 0 0 -1.246 1.564 11.08 11.08 0 0 1 1.333 1.256z"/><path d="m45.147 39.11a15.6 15.6 0 0 0 .859-1.38 1 1 0 1 0 -1.75-.968 14.043 14.043 0 0 1 -.75 1.206 1 1 0 1 0 1.641 1.142z"/><path d="m50 28.1v1.985a1 1 0 0 0 .985 1.015h.015a1 1 0 0 0 1-.985v-2.015a1 1 0 0 0 -2 0z"/><path d="m50.285 33.011a1 1 0 0 0 -1.407.143 5.056 5.056 0 0 1 -1.247 1.1 1 1 0 0 0 1.054 1.7 7.027 7.027 0 0 0 1.743-1.533 1 1 0 0 0 -.143-1.41z"/><path d="m34.066 4h2a1 1 0 0 0 0-2h-2a1 1 0 0 0 0 2z"/><path d="m49.955 21.211a1 1 0 0 0 -.89 1.1 14.455 14.455 0 0 0 .391 2.11 1 1 0 0 0 .968.749 1.039 1.039 0 0 0 .251-.031 1 1 0 0 0 .718-1.219 12.3 12.3 0 0 1 -.339-1.819 1 1 0 0 0 -1.099-.89z"/><path d="m49 16.208v2a1 1 0 0 0 2 0v-2a1 1 0 0 0 -2 0z"/><path d="m28.084 4.232a.993.993 0 0 0 .241-.029 7.086 7.086 0 0 1 1.735-.203.972.972 0 0 0 .973-1 1.028 1.028 0 0 0 -1.033-1h-.007a8.978 8.978 0 0 0 -2.149.261 1 1 0 0 0 .239 1.971z"/><path d="m19.293 35.875a1 1 0 1 0 -1.814.844 16.335 16.335 0 0 0 1.021 1.868 1 1 0 0 0 1.686-1.076 14.172 14.172 0 0 1 -.893-1.636z"/><path d="m14 18.854a1 1 0 0 0 1-1v-2a1 1 0 0 0 -2 0v2a1 1 0 0 0 1 1z"/><path d="m13 30.035a1 1 0 0 0 1-1v-2a1 1 0 1 0 -2 0v2a1 1 0 0 0 1 1z"/><path d="m22.575 6h1.425a4.151 4.151 0 0 1 .463.022 1.051 1.051 0 0 0 .112.006 1 1 0 0 0 .11-1.993 5.939 5.939 0 0 0 -.685-.035h-1.425a1 1 0 0 0 0 2z"/><path d="m14 24.854a1 1 0 0 0 1-1v-2a1 1 0 0 0 -2 0v2a1 1 0 0 0 1 1z"/><path d="m16.984 7.768a1 1 0 0 0 .627-.221 7.016 7.016 0 0 1 1.489-.918 1 1 0 1 0 -.832-1.819 9.041 9.041 0 0 0 -1.907 1.179 1 1 0 0 0 .628 1.779z"/><path d="m13.939 12.848a1 1 0 0 0 1.131-.848 7.014 7.014 0 0 1 .462-1.683 1 1 0 1 0 -1.847-.766 8.944 8.944 0 0 0 -.594 2.166 1 1 0 0 0 .848 1.131z"/><path d="m13.265 32.032a1 1 0 0 0 -.389 1.36 7.013 7.013 0 0 0 1.447 1.814 1 1 0 0 0 1.337-1.488 5 5 0 0 1 -1.035-1.3 1 1 0 0 0 -1.36-.386z"/></g><path d="m29 26v-.934a7.042 7.042 0 0 0 1.464-1.116l.243-.243a1 1 0 0 0 -1.414-1.414l-.243.243a4.967 4.967 0 0 1 -3.535 1.464h-.515a1 1 0 0 0 0 2h.515a7.045 7.045 0 0 0 1.485-.162v.162a1 1 0 0 0 2 0z" fill="#58595b"/><path d="m34.122 36.536.171.171a1 1 0 0 0 1.414-1.414l-.171-.171a5 5 0 0 0 -7.072 0l-.171.171a1 1 0 0 0 1.414 1.414l.171-.171a3 3 0 0 1 4.244 0z" fill="#6d6e71"/><path d="m30.212 31.615a1 1 0 0 0 .788.385h2a1 1 0 0 0 0-2h-.719l.689-2.757a1 1 0 1 0 -1.94-.486l-1 4a1 1 0 0 0 .182.858z" fill="#6d6e71"/><path d="m45 56a1 1 0 0 1 1 1v4a0 0 0 0 1 0 0h-2a0 0 0 0 1 0 0v-4a1 1 0 0 1 1-1z" fill="#cd2a00"/><path d="m19 56a1 1 0 0 1 1 1v4a0 0 0 0 1 0 0h-2a0 0 0 0 1 0 0v-4a1 1 0 0 1 1-1z" fill="#cd2a00"/></g></svg>