<svg id="Layer_1" enable-background="new 0 0 512.001 512.001" height="512" viewBox="0 0 512.001 512.001" width="512" xmlns="http://www.w3.org/2000/svg"><g><g><g><path d="m446.367 468.184c19.891 0 33.578-20.194 25.973-38.573-6.882-16.631-17.214-28.754-4.601-57.023 22.288-49.951 10.291-76.443-9.43-108.515-33.432-54.371-8.989-82.141-21.99-129.241-46.81-169.598-313.825-169.609-360.639 0-13 47.101 11.443 74.87-21.99 129.241-19.721 32.072-31.718 58.564-9.43 108.515 12.613 28.269 2.281 40.393-4.601 57.023-7.605 18.379 6.082 38.573 25.973 38.573z" fill="#735351"/><path d="m467.739 372.588c22.288-49.951 10.291-76.443-9.43-108.515-33.432-54.371-8.989-82.141-21.99-129.241-24.898-90.21-112.097-132.439-195.321-126.685 73.243 5.065 143.409 47.294 165.322 126.685 13 47.101-11.443 74.87 21.99 129.241 19.721 32.072 31.718 58.563 9.43 108.515-12.613 28.269-2.281 40.393 4.601 57.023 7.605 18.379-6.082 38.573-25.973 38.573h30c19.891 0 33.578-20.194 25.973-38.573-6.883-16.631-17.215-28.755-4.602-57.023z" fill="#664442"/><g><g><ellipse cx="392.228" cy="270.736" fill="#fac8a2" rx="30.381" ry="30.523"/></g><g><ellipse cx="119.774" cy="270.736" fill="#fac8a2" rx="30.381" ry="30.523"/></g></g><g><path d="m115.766 504.629v-22.559c0-77.332 62.69-140.022 140.022-140.022h.426c77.332 0 140.022 62.69 140.022 140.022v22.559z" fill="#ff80b3"/><path d="m256.214 342.048h-.426c-4.994 0-9.928.262-14.787.772 70.381 7.387 125.235 66.912 125.235 139.25v22.559h30v-22.559c0-77.332-62.69-140.022-140.022-140.022z" fill="#ff6ba7"/><path d="m256.055 448.84h-.108c-19.618 0-35.521-15.904-35.521-35.521v-57.491h71.151v57.491c-.001 19.618-15.904 35.521-35.522 35.521z" fill="#ffd8ba"/></g><g><path d="m183.532 105.125c-4.497 45.751-27.728 50.849-42.074 55.825-6.878 2.386-11.472 8.911-11.472 16.221v86.505c0 69.92 56.419 126.6 126.014 126.6 69.596 0 126.014-56.681 126.014-126.6v-80.476c0-9.743-8.053-17.454-17.747-17.169-15.173.445-40.366.56-59.885-18.765-24.882-24.636-39.273-15.864-65.241-16.457-32.465-.741-45.9-15.867-51.345-26.497-1.037-2.028-4.041-1.454-4.264.813z" fill="#ffd8ba"/></g></g></g><g><path d="m129.214 422.179c-3.7-1.513-8.438.207-9.995 4.012-4.556 11.126-7.705 22.667-9.42 34.493h-44.164c-6.994 0-13.238-3.341-17.133-9.167-5.931-8.875-2.776-17.441 1.29-26.184 30.431-58.54-44.037-75.4 10.289-157.333 21.485-34.94 20.391-59.925 19.332-84.088-.669-15.272-1.301-29.698 3.498-47.086 13.63-49.382 48.295-87.513 97.607-107.368 54.706-22.531 125.253-18.291 175.729 12.222 3.562 2.116 8.164.943 10.278-2.618 2.115-3.562.943-8.163-2.618-10.278-122.12-73.876-310.158.293-299.479 155.786 1.003 22.912 1.951 44.553-17.124 75.575-20.168 32.8-33.703 62.131-9.891 115.5 9.278 20.792 4.645 30.752-1.222 43.362-6.307 13.556-9.061 27.529-.16 40.846 6.627 9.913 17.693 15.832 29.604 15.832h42.765c-.408 9.629-.135 19.31-.135 28.945 0 9.829 15.253 9.829 15.253 0 0-25.048.098-48.939 9.8-72.669 1.568-3.835-.27-8.214-4.104-9.782z"/><path d="m311.306 316.322c-29.154 30.516-81.463 30.515-110.615 0-2.922-2.936-7.671-2.947-10.606-.024-2.936 2.922-2.947 7.671-.024 10.606 34.741 36.369 97.136 36.365 131.877 0 2.922-2.936 2.911-7.685-.024-10.606-2.937-2.923-7.686-2.913-10.608.024z"/><g><path d="m191.913 201.482c.132-.044 13.553-4.291 26.437.03 3.631 1.217 8.265-1.057 9.496-4.726 1.317-3.927-.799-8.178-4.726-9.496-17.803-5.97-35.23-.279-35.964-.034-3.928 1.313-6.047 5.563-4.734 9.491 1.313 3.929 5.561 6.049 9.491 4.735z"/><path d="m293.652 201.512c12.93-4.337 26.329-.066 26.462-.022 3.922 1.297 8.155-.823 9.466-4.743 1.313-3.928-.806-8.178-4.734-9.491-.734-.245-18.162-5.936-35.964.034-3.927 1.317-6.068 5.577-4.726 9.496 2.345 6.843 8.705 4.992 9.496 4.726z"/><path d="m205.134 214.09c-19.725 0-35.771 16.047-35.771 35.772v14.037c.344 9.931 14.659 9.923 15 0v-14.037c1.144-27.564 40.409-27.542 41.543 0v14.037c.344 9.931 14.659 9.923 15 0v-14.037c0-19.725-16.047-35.772-35.772-35.772z"/><path d="m474.588 375.644c23.812-53.368 10.278-82.7-9.89-115.5-19.075-31.022-18.127-52.663-17.124-75.575 4.906-45.517-14.888-95.65-48.105-128.207-7.245-6.789-17.392 3.312-10.625 10.588 19.235 19.303 32.776 42.812 40.247 69.877 4.799 17.388 4.167 31.813 3.498 47.086-1.059 24.163-2.153 49.147 19.332 84.088 18.997 30.896 29.885 54.655 8.97 101.531-12.063 27.035-4.953 42.317 1.319 55.802 4.066 8.743 7.221 17.309 1.29 26.184-3.895 5.826-10.139 9.167-17.133 9.167h-44.171c-5.58-38.44-26.076-73.121-57.474-96.652 17.019-15.152 30.17-34.594 37.756-56.621 23.694 6.494 47.883-12.235 47.883-36.675 0-21.55-19.086-39.463-40.594-37.926v-49.611c0-13.633-11.803-25.104-25.467-24.666-12.767.373-36.541 1.073-54.389-16.599-21.584-21.37-37.681-20.299-54.727-19.164-4.918.328-10.005.667-15.62.538-27.896-.637-39.782-12.543-44.842-22.42-4.415-8.614-17.339-5.833-18.403 3.502-3.764 38.292-20.773 43.998-34.441 48.582-10.901 3.661-19.14 12.034-19.14 24.198v55.639c-21.549-1.531-40.594 16.37-40.594 37.926 0 24.465 24.183 43.17 47.883 36.675 7.57 21.978 20.679 41.382 37.643 56.52-10.343 7.742-19.613 16.794-27.643 27.002-5.859 7.447 5.883 16.783 11.789 9.274 8.038-10.219 17.459-19.148 28.053-26.597 10.162 7.144 21.354 12.904 33.306 17.007v22.703c0 23.722 19.3 43.021 43.021 43.021h.108c23.722 0 43.021-19.299 43.021-43.021v-22.702c11.902-4.085 23.052-9.815 33.18-16.918 35.302 24.869 56.227 65.009 56.227 108.372v22.559c0 9.386 15 9.813 15 0 0-9.634.275-19.316-.136-28.945h42.767c11.91 0 22.977-5.918 29.604-15.832 8.901-13.317 6.146-27.29-.16-40.846-5.863-12.611-10.497-22.571-1.219-43.364zm-84.821-127.771c14.567 0 25.594 10.168 25.594 22.863 0 14.679-14.535 26.073-28.804 22.24 3.326-14.929 3.21-45.103 3.21-45.103zm-269.741 45.886c-12.616 0-22.881-10.328-22.881-23.023 0-13.39 12.263-24.441 25.594-22.863 0 15.17-.115 30.173 3.21 45.104-1.922.516-3.916.782-5.923.782zm164.303 119.56c0 15.451-12.57 28.021-28.021 28.021h-.108c-15.451 0-28.021-12.57-28.021-28.021v-18.525c17.995 3.961 38.156 3.962 56.151 0v18.525zm-28.076-30.542c-65.349 0-118.514-53.428-118.514-119.101v-86.505c0-5.664 4.146-8.378 8.909-9.976 13.432-4.505 35.009-11.742 42.616-48.139 14.652 15.819 36.714 18.948 49.959 19.25 6.283.144 11.955-.234 16.959-.567 50.263-6.248 35.209 38.975 108.558 35.789 5.409-.169 10.027 4.249 10.027 9.672v80.477c0 65.672-53.165 119.1-118.514 119.1z"/><path d="m306.868 214.09c-19.725 0-35.772 16.047-35.772 35.772v14.037c.344 9.931 14.659 9.923 15 0v-14.037c1.144-27.563 40.41-27.543 41.543 0v14.037c.344 9.931 14.659 9.923 15 0v-14.037c0-19.725-16.047-35.772-35.771-35.772z"/></g></g></g></svg>