<?xml version="1.0"?>
<svg xmlns="http://www.w3.org/2000/svg" version="1.1" width="512" height="512" x="0" y="0" viewBox="0 0 429.134 429.134" style="enable-background:new 0 0 512 512" xml:space="preserve"
	class=""><g>
<g xmlns="http://www.w3.org/2000/svg">
	<g>
		<path d="M283.995,268.281c-8.175-12.8-19.041-23.666-31.841-31.841V56.28c0-31.083-25.197-56.28-56.28-56.28    s-56.28,25.197-56.28,56.28v180.16c-48.668,31.083-62.924,95.733-31.841,144.401c31.083,48.668,95.733,62.924,144.401,31.841    S315.077,316.949,283.995,268.281z M250.707,329.647c-3.912,27.278-27.316,47.509-54.873,47.433V377    c-30.53,0.084-55.348-24.597-55.433-55.127c-0.076-27.557,20.155-50.961,47.433-54.873V145.72c0-4.418,3.582-8,8-8s8,3.582,8,8    v121.36C234.055,271.414,255.041,299.426,250.707,329.647z" fill="#3bceac"
			style="" class=""/>
	</g>
</g>
<g xmlns="http://www.w3.org/2000/svg">
	<g>
		<circle cx="195.834" cy="321.72" r="39.28" fill="#3bceac" style="" class=""/>
	</g>
</g>
<g xmlns="http://www.w3.org/2000/svg">
	<g>
		<path d="M329.834,55h-50c-4.418,0-8,3.582-8,8s3.582,8,8,8h50c4.418,0,8-3.582,8-8S334.252,55,329.834,55z" fill="#3bceac"
			style="" class=""/>
	</g>
</g>
<g xmlns="http://www.w3.org/2000/svg">
	<g>
		<path d="M319.514,95h-29.36c-4.418,0-8,3.582-8,8s3.582,8,8,8h29.36c4.418,0,8-3.582,8-8S323.932,95,319.514,95z" fill="#3bceac"
			style="" class=""/>
	</g>
</g>
<g xmlns="http://www.w3.org/2000/svg">
	<g>
		<path d="M329.834,135h-50c-4.418,0-8,3.582-8,8s3.582,8,8,8h50c4.418,0,8-3.582,8-8S334.252,135,329.834,135z" fill="#3bceac"
			style="" class=""/>
	</g>
</g>
<g xmlns="http://www.w3.org/2000/svg">
	<g>
		<path d="M319.514,175h-29.36c-4.418,0-8,3.582-8,8s3.582,8,8,8h29.36c4.418,0,8-3.582,8-8S323.932,175,319.514,175z" fill="#3bceac"
			style="" class=""/>
	</g>
</g>
<g xmlns="http://www.w3.org/2000/svg">
	<g>
		<path d="M329.834,215h-50c-4.418,0-8,3.582-8,8s3.582,8,8,8h50c4.418,0,8-3.582,8-8S334.252,215,329.834,215z" fill="#3bceac"
			style="" class=""/>
	</g>
</g>
<g xmlns="http://www.w3.org/2000/svg">
</g>
<g xmlns="http://www.w3.org/2000/svg">
</g>
<g xmlns="http://www.w3.org/2000/svg">
</g>
<g xmlns="http://www.w3.org/2000/svg">
</g>
<g xmlns="http://www.w3.org/2000/svg">
</g>
<g xmlns="http://www.w3.org/2000/svg">
</g>
<g xmlns="http://www.w3.org/2000/svg">
</g>
<g xmlns="http://www.w3.org/2000/svg">
</g>
<g xmlns="http://www.w3.org/2000/svg">
</g>
<g xmlns="http://www.w3.org/2000/svg">
</g>
<g xmlns="http://www.w3.org/2000/svg">
</g>
<g xmlns="http://www.w3.org/2000/svg">
</g>
<g xmlns="http://www.w3.org/2000/svg">
</g>
<g xmlns="http://www.w3.org/2000/svg">
</g>
<g xmlns="http://www.w3.org/2000/svg">
</g>
</g></svg>
